<svg viewBox="0 0 152 152" xmlns="http://www.w3.org/2000/svg"><g id="Layer_2" data-name="Layer 2"><g id="Color"><g id="_22.Dropbox" data-name="22.Dropbox"><circle id="Background" cx="76" cy="76" fill="#4e85e5" r="76"/><g id="Icon" fill="#fff"><path d="m73.12 81-20.5-13.2a1.83 1.83 0 0 0 -2.15.11l-13.79 11.09a1.84 1.84 0 0 0 .16 3l20.5 13.2a1.83 1.83 0 0 0 2.15-.11l13.79-11.09a1.85 1.85 0 0 0 -.16-3z"/><path d="m78.72 84 13.79 11.09a1.83 1.83 0 0 0 2.15.11l20.5-13.2a1.84 1.84 0 0 0 .16-3l-13.79-11.09a1.83 1.83 0 0 0 -2.15-.11l-20.5 13.2a1.85 1.85 0 0 0 -.16 3z"/><path d="m73.28 49.27-13.79-11.1a1.85 1.85 0 0 0 -2.15-.11l-20.5 13.23a1.83 1.83 0 0 0 -.16 3l13.79 11.1a1.85 1.85 0 0 0 2.15.11l20.5-13.23a1.84 1.84 0 0 0 .16-3z"/><path d="m115.16 51.29-20.5-13.23a1.85 1.85 0 0 0 -2.15.11l-13.79 11.1a1.84 1.84 0 0 0 .16 3l20.5 13.23a1.85 1.85 0 0 0 2.15-.11l13.79-11.1a1.83 1.83 0 0 0 -.16-3z"/><path d="m75 85.94-15.44 12.32a1.69 1.69 0 0 1 -2 .1l-3.8-2.46a1.67 1.67 0 0 0 -2.57 1.4v1.33a1.68 1.68 0 0 0 .8 1.43l23.01 13.94a1.66 1.66 0 0 0 1.72 0l23-13.93a1.68 1.68 0 0 0 .8-1.43v-1.19a1.66 1.66 0 0 0 -2.52-1.4l-3.58 2.31a1.7 1.7 0 0 1 -2-.1l-15.34-12.26a1.67 1.67 0 0 0 -2.08-.06z"/></g></g></g></g></svg>